<?xml version="1.0" encoding="UTF-8"?>
<svg id="Layer_1" data-name="Layer 1" xmlns="http://www.w3.org/2000/svg" viewBox="0 0 2324.68 1080">
  <defs>
    <style>
      .cls-1 {
        fill: #4874ff;
      }
    </style>
  </defs>
  <path class="cls-1" d="M1857.88,685.27h-749.92l-199.57-254.7h-441.64c-29.23,0-56.7,11.38-77.37,32.05-28.2,28.25-47.3,79.09-16.3,137.04,16.42,30.71,48.99,49.79,84.99,49.79h515.3v35.83H458.07c-49.24,0-93.91-26.33-116.58-68.72-33.15-61.98-24.29-132.34,22.56-179.26,27.44-27.45,63.92-42.56,102.71-42.56h459.08l199.57,254.7h732.47c29.22,0,56.71-11.39,77.41-32.06,28.23-28.23,47.33-79.06,16.25-137.07-16.44-30.69-49.01-49.75-84.99-49.75h-806.13v-35.83h806.13c49.21,0,93.88,26.31,116.57,68.66,33.24,62.03,24.4,132.42-22.51,179.33-27.47,27.44-63.96,42.54-102.74,42.54Z"/>
  <g>
    <path d="M455.24,510.46v-25.57h98.93v25.57h-34.21v84.65h-30.33v-84.65h-34.39Z"/>
    <path d="M634.06,595.11v-30.33h-40.56v30.33h-30.16v-99.11c8.47-4.82,16.87-8.32,25.22-10.49,8.35-2.17,16.75-3.26,25.22-3.26s16.87,1.09,25.22,3.26c8.35,2.18,16.69,5.67,25.04,10.49v99.11h-29.98ZM593.5,514.34v24.34h40.56v-24.34c-3.29-1.53-6.59-2.67-9.88-3.44-3.29-.76-6.76-1.15-10.4-1.15s-7.11.38-10.41,1.15c-3.29.77-6.58,1.91-9.88,3.44Z"/>
    <path d="M764.12,569.54v25.57h-90.29v-21.34l49.55-63.31h-48.5v-25.57h87.82v21.34l-49.73,63.31h51.14Z"/>
    <path d="M864.37,569.54v25.57h-90.47v-110.22h90.47v25.57h-60.14v17.64h53.61v23.45h-53.61v17.99h60.14Z"/>
  </g>
  <g>
    <path d="M1347.03,595.11v-30.33h-40.56v30.33h-30.16v-99.11c8.47-4.82,16.87-8.32,25.22-10.49,8.35-2.17,16.75-3.26,25.22-3.26s16.87,1.09,25.22,3.26c8.35,2.18,16.69,5.67,25.04,10.49v99.11h-29.98ZM1306.47,514.34v24.34h40.56v-24.34c-3.29-1.53-6.59-2.67-9.88-3.44-3.29-.76-6.76-1.15-10.4-1.15s-7.11.38-10.41,1.15c-3.29.77-6.58,1.91-9.88,3.44Z"/>
    <path d="M1388.03,510.46v-25.57h98.93v25.57h-34.21v84.65h-30.33v-84.65h-34.39Z"/>
    <path d="M1569.4,595.11l-43.73-66.48v66.48h-27.69v-110.22h29.8l43.74,66.48v-66.48h27.69v110.22h-29.8Z"/>
    <path d="M1681.81,595.11v-30.33h-40.56v30.33h-30.16v-99.11c8.47-4.82,16.87-8.32,25.22-10.49,8.35-2.17,16.75-3.26,25.22-3.26s16.87,1.09,25.22,3.26c8.35,2.18,16.69,5.67,25.04,10.49v99.11h-29.98ZM1641.25,514.34v24.34h40.56v-24.34c-3.29-1.53-6.59-2.67-9.88-3.44-3.29-.76-6.76-1.15-10.4-1.15s-7.11.38-10.41,1.15c-3.29.77-6.58,1.91-9.88,3.44Z"/>
    <path d="M1821.06,595.11l-19.05-76.01-19.22,76.01h-39.86l-20.81-110.22h31.74l11.82,82,22.04-82h29.45l21.87,82,11.99-82h31.39l-20.81,110.22h-40.56Z"/>
    <path d="M1219.88,527.46v26.98h17.81v14.04c-2.82.59-5.62,1.03-8.38,1.32-2.76.3-5.56.44-8.38.44-3.88,0-7.61-.29-11.2-.88-3.59-.59-7.14-1.65-10.67-3.17v-52.2c4.82-1.65,9.58-2.76,14.28-3.35,4.7-.59,9.46-.88,14.28-.88,5.64,0,11.73.56,18.25,1.68,6.52,1.12,12.61,2.79,18.25,5.03v-27.33c-6.23-2.35-12.87-4.08-19.93-5.2-7.05-1.12-14.4-1.68-22.04-1.68-8.94,0-17.93,1.12-26.98,3.35-9.06,2.24-17.87,5.64-26.45,10.23v88.35c7.76,4.7,16.05,8.14,24.87,10.32,8.82,2.17,17.87,3.26,27.16,3.26s17.16-.94,24.34-2.82c7.17-1.88,13.69-4.17,19.57-6.88v-60.6h-44.79Z"/>
  </g>
</svg>