<?xml version="1.0" encoding="UTF-8"?>
<svg id="Layer_1" data-name="Layer 1" xmlns="http://www.w3.org/2000/svg" viewBox="0 0 1080 1080">
  <defs>
    <style>
      .cls-1 {
        fill: #4874ff;
      }
    </style>
  </defs>
  <path class="cls-1" d="M799.24,707.49h-156.58l-227.22-290h-134.68c-32.71,0-63.47,12.74-86.61,35.88-23.13,23.17-35.88,53.94-35.88,86.65,0,67.54,54.95,122.49,122.49,122.49h209.68v44.99h-209.68c-92.35,0-167.48-75.13-167.48-167.48,0-44.7,17.42-86.77,49.04-118.45,31.65-31.65,73.7-49.07,118.43-49.07h156.58l227.22,290h134.68c32.71,0,63.47-12.74,86.61-35.88,23.13-23.17,35.87-53.94,35.87-86.65,0-67.54-54.95-122.48-122.48-122.48h-209.68v-44.99h209.68c92.34,0,167.47,75.13,167.47,167.47,0,44.71-17.42,86.78-49.04,118.45-31.65,31.65-73.7,49.07-118.43,49.07Z"/>
  <path d="M272.12,506.37v-29.11h112.64v29.11h-38.95v96.38h-34.53v-96.38h-39.15Z"/>
  <path d="M779.2,524.25v33.88h22.37v17.63c-3.54.74-7.05,1.29-10.52,1.66-3.47.37-6.98.55-10.52.55-4.87,0-9.56-.37-14.06-1.11-4.5-.74-8.97-2.07-13.4-3.99v-65.55c6.05-2.07,12.03-3.47,17.94-4.21,5.9-.74,11.88-1.11,17.94-1.11,7.09,0,14.73.7,22.92,2.1,8.19,1.4,15.83,3.51,22.92,6.31v-34.32c-7.83-2.95-16.17-5.13-25.02-6.53-8.86-1.4-18.09-2.1-27.68-2.1-11.22,0-22.51,1.4-33.88,4.21-11.37,2.81-22.44,7.09-33.22,12.84v110.94c9.74,5.91,20.15,10.22,31.22,12.95,11.07,2.73,22.44,4.1,34.1,4.1s21.55-1.18,30.56-3.54c9-2.36,17.2-5.24,24.58-8.64v-76.09h-56.25Z"/>
</svg>